<?xml version="1.0" encoding="UTF-8" standalone="no"?>
<svg
   xmlns:dc="http://purl.org/dc/elements/1.1/"
   xmlns:cc="http://creativecommons.org/ns#"
   xmlns:rdf="http://www.w3.org/1999/02/22-rdf-syntax-ns#"
   xmlns:svg="http://www.w3.org/2000/svg"
   xmlns="http://www.w3.org/2000/svg"
   xmlns:xlink="http://www.w3.org/1999/xlink"
   xmlns:sodipodi="http://sodipodi.sourceforge.net/DTD/sodipodi-0.dtd"
   xmlns:inkscape="http://www.inkscape.org/namespaces/inkscape"
   data-v-fde0c5aa=""
   viewBox="0 0 29.303857 47.966534"
   class="iconLeft"
   version="1.1"
   id="svg26"
   sodipodi:docname="icon.svg"
   width="29.303858"
   height="47.966534"
   inkscape:version="0.92.5 (2060ec1f9f, 2020-04-08)">
  <metadata
     id="metadata30">
    <rdf:RDF>
      <cc:Work
         rdf:about="">
        <dc:format>image/svg+xml</dc:format>
        <dc:type
           rdf:resource="http://purl.org/dc/dcmitype/StillImage" />
        <dc:title></dc:title>
      </cc:Work>
    </rdf:RDF>
  </metadata>
  <sodipodi:namedview
     pagecolor="#ffffff"
     bordercolor="#666666"
     borderopacity="1"
     objecttolerance="10"
     gridtolerance="10"
     guidetolerance="10"
     inkscape:pageopacity="0"
     inkscape:pageshadow="2"
     inkscape:window-width="2560"
     inkscape:window-height="1308"
     id="namedview28"
     showgrid="false"
     fit-margin-top="0"
     fit-margin-left="0"
     fit-margin-right="0"
     fit-margin-bottom="0"
     inkscape:zoom="3.1466667"
     inkscape:cx="19.545958"
     inkscape:cy="44.961827"
     inkscape:window-x="0"
     inkscape:window-y="27"
     inkscape:window-maximized="1"
     inkscape:current-layer="svg26" />
  <!---->
  <defs
     data-v-fde0c5aa=""
     id="defs2">
    <!---->
    <linearGradient
       inkscape:collect="always"
       xlink:href="#4850d6f6-aeb9-4b2e-9f3d-d827982fd8cc"
       id="linearGradient4547"
       gradientTransform="scale(0.78161562,1.2794012)"
       x1="7.6220832"
       y1="2.5105889"
       x2="51.64761"
       y2="2.5105889"
       gradientUnits="userSpaceOnUse" />
    <linearGradient
       inkscape:collect="always"
       xlink:href="#4850d6f6-aeb9-4b2e-9f3d-d827982fd8cc"
       id="linearGradient4549"
       gradientTransform="scale(0.78161562,1.2794012)"
       x1="7.6220832"
       y1="2.5105889"
       x2="51.64761"
       y2="2.5105889"
       gradientUnits="userSpaceOnUse" />
  </defs>
  <defs
     data-v-fde0c5aa=""
     id="defs11">
    <linearGradient
       data-v-fde0c5aa=""
       gradientTransform="rotate(25)"
       id="2e49450e-6f00-4939-bb15-7fbd0796a8ac"
       x1="0"
       y1="0"
       x2="1"
       y2="0">
      <stop
         data-v-fde0c5aa=""
         offset="0%"
         stop-color="#ff0ff8"
         stop-opacity="1"
         id="stop6" />
      <stop
         data-v-fde0c5aa=""
         offset="100%"
         stop-color="#1ddbfc"
         stop-opacity="1"
         id="stop8" />
    </linearGradient>
  </defs>
  <defs
     data-v-fde0c5aa=""
     id="defs21">
    <linearGradient
       data-v-fde0c5aa=""
       gradientTransform="rotate(25)"
       id="4850d6f6-aeb9-4b2e-9f3d-d827982fd8cc"
       x1="0"
       y1="0"
       x2="1"
       y2="0">
      <stop
         data-v-fde0c5aa=""
         offset="0%"
         stop-color="#1DDBFC"
         stop-opacity="1"
         id="stop16" />
      <stop
         data-v-fde0c5aa=""
         offset="100%"
         stop-color="#FF0FF8"
         stop-opacity="1"
         id="stop18" />
    </linearGradient>
  </defs>
  <g
     data-v-fde0c5aa=""
     id="ec9dcfd8-f632-456d-99b3-44ef091ef010"
     transform="matrix(0.85158302,0,0,0.85158302,-5.0733393,-2.7353278)"
     style="fill:url(#linearGradient4549);stroke:none">
    <path
       d="m 23.782,34.947 c -1.222,4.291 0.708,9.778 -1.67,13.021 -0.539,0.094 -0.575,-0.314 -1.001,-0.334 -0.674,-3.767 -0.892,-10.207 0,-14.355 C 30.609,33.388 37.865,28.276 37.47,19.925 36.792,5.652 20.644,-0.562 12.211,11.871 c -0.449,-0.146 -1.565,2.26 -2.086,3.391 -1.565,7.477 0.983,12.303 8.983,11.34 0.838,-1.944 0.201,-5.362 2.003,-6.343 1.363,0.869 0.468,5.757 0.668,6.677 C 16.508,31.493 7.017,28.851 6.088,22.263 5.1,15.253 9.925,10.35 13.766,6.57 17.601,4.567 21.051,3.017 25.451,3.232 c 4.958,0.243 10.922,3.881 13.021,8.012 5.537,10.902 -1.557,23.351 -14.69,23.703 z M 18.44,58.316 c -0.556,-5.84 6.694,-6.09 7.01,-2.002 0.293,3.778 -4.104,3.944 -7.01,2.002 z"
       id="path23"
       inkscape:connector-curvature="0"
       style="clip-rule:evenodd;fill:url(#linearGradient4547)" />
  </g>
  <!---->
</svg>
