<?xml version="1.0" encoding="UTF-8" standalone="no"?>
<svg
   xmlns:dc="http://purl.org/dc/elements/1.1/"
   xmlns:cc="http://creativecommons.org/ns#"
   xmlns:rdf="http://www.w3.org/1999/02/22-rdf-syntax-ns#"
   xmlns:svg="http://www.w3.org/2000/svg"
   xmlns="http://www.w3.org/2000/svg"
   xmlns:xlink="http://www.w3.org/1999/xlink"
   xmlns:sodipodi="http://sodipodi.sourceforge.net/DTD/sodipodi-0.dtd"
   xmlns:inkscape="http://www.inkscape.org/namespaces/inkscape"
   data-v-fde0c5aa=""
   viewBox="0 0 177.69613 31.97769"
   class="iconLeft"
   version="1.1"
   id="svg26"
   sodipodi:docname="logo-solo.svg"
   width="177.69614"
   height="31.97769"
   inkscape:version="0.92.5 (2060ec1f9f, 2020-04-08)">
  <metadata
     id="metadata30">
    <rdf:RDF>
      <cc:Work
         rdf:about="">
        <dc:format>image/svg+xml</dc:format>
        <dc:type
           rdf:resource="http://purl.org/dc/dcmitype/StillImage" />
        <dc:title></dc:title>
      </cc:Work>
    </rdf:RDF>
  </metadata>
  <sodipodi:namedview
     pagecolor="#ffffff"
     bordercolor="#666666"
     borderopacity="1"
     objecttolerance="10"
     gridtolerance="10"
     guidetolerance="10"
     inkscape:pageopacity="0"
     inkscape:pageshadow="2"
     inkscape:window-width="2560"
     inkscape:window-height="1308"
     id="namedview28"
     showgrid="false"
     fit-margin-top="0"
     fit-margin-left="0"
     fit-margin-right="0"
     fit-margin-bottom="0"
     inkscape:zoom="3.1466667"
     inkscape:cx="-78.531203"
     inkscape:cy="35.696225"
     inkscape:window-x="0"
     inkscape:window-y="27"
     inkscape:window-maximized="1"
     inkscape:current-layer="svg26" />
  <!---->
  <defs
     data-v-fde0c5aa=""
     id="defs2">
    <!---->
    <linearGradient
       inkscape:collect="always"
       xlink:href="#2e49450e-6f00-4939-bb15-7fbd0796a8ac"
       id="linearGradient4543"
       gradientTransform="scale(2.3573032,0.42421357)"
       x1="0.28422308"
       y1="4.6203141"
       x2="35.926647"
       y2="4.6203141"
       gradientUnits="userSpaceOnUse" />
    <linearGradient
       inkscape:collect="always"
       xlink:href="#2e49450e-6f00-4939-bb15-7fbd0796a8ac"
       id="linearGradient4545"
       gradientTransform="scale(2.3573032,0.42421357)"
       x1="0.28422308"
       y1="4.6203141"
       x2="35.926647"
       y2="4.6203141"
       gradientUnits="userSpaceOnUse" />
  </defs>
  <defs
     data-v-fde0c5aa=""
     id="defs11">
    <linearGradient
       data-v-fde0c5aa=""
       gradientTransform="rotate(25)"
       id="2e49450e-6f00-4939-bb15-7fbd0796a8ac"
       x1="0"
       y1="0"
       x2="1"
       y2="0">
      <stop
         data-v-fde0c5aa=""
         offset="0%"
         stop-color="#ff0ff8"
         stop-opacity="1"
         id="stop6" />
      <stop
         data-v-fde0c5aa=""
         offset="100%"
         stop-color="#1ddbfc"
         stop-opacity="1"
         id="stop8" />
    </linearGradient>
  </defs>
  <g
     data-v-fde0c5aa=""
     id="4160ca97-dc5a-4768-a374-0b717688f287"
     transform="matrix(2.1149266,0,0,2.1149266,-1.4170008,-4.1452561)"
     style="fill:url(#linearGradient4545)">
    <path
       d="M 6.5,10.33 V 9.1 9.1 Q 6.5,8.58 6.34,8.14 v 0 0 Q 6.19,7.7 5.91,7.38 v 0 0 Q 5.63,7.07 5.25,6.89 v 0 0 Q 4.87,6.71 4.44,6.71 v 0 0 q -0.51,0 -0.9,0.22 v 0 0 Q 3.14,7.15 2.85,7.57 v 0 0 q -0.29,0.41 -0.44,1 v 0 0 Q 2.25,9.16 2.25,9.87 v 0 0 q 0,0.73 0.16,1.32 v 0 0 q 0.15,0.58 0.44,1 v 0 0 q 0.29,0.41 0.69,0.63 v 0 0 q 0.41,0.23 0.91,0.23 v 0 0 q 0.58,0 1.04,-0.27 v 0 0 q 0.46,-0.26 0.7,-0.75 v 0 0 Q 6.5,11.41 6.5,10.33 Z m 0.04,4.61 V 12.57 H 6.48 v 0 q -0.49,0.62 -1.01,0.88 v 0 0 Q 4.94,13.72 4.2,13.72 v 0 0 q -0.78,0 -1.43,-0.27 v 0 0 Q 2.13,13.17 1.66,12.68 v 0 0 Q 1.19,12.18 0.93,11.49 v 0 0 Q 0.67,10.79 0.67,9.97 v 0 0 q 0,-0.83 0.28,-1.55 v 0 0 Q 1.23,7.7 1.72,7.17 v 0 0 Q 2.21,6.64 2.87,6.33 v 0 0 Q 3.53,6.02 4.28,6.02 v 0 0 q 0.76,0 1.46,0.31 v 0 0 q 0.7,0.31 1.16,0.82 v 0 L 7.52,6.19 h 0.35 v 8.65 0 q 0,0.59 0.03,0.92 v 0 0 q 0.04,0.34 0.19,0.52 v 0 0 q 0.14,0.18 0.43,0.24 v 0 0 q 0.29,0.06 0.79,0.07 v 0 0.49 H 5.04 v -0.49 0 Q 5.49,16.58 5.78,16.5 v 0 0 q 0.28,-0.08 0.45,-0.27 v 0 0 q 0.17,-0.19 0.24,-0.5 v 0 0 q 0.07,-0.32 0.07,-0.79 z m 9.08,-5.17 v -1.37 0 q 0,-0.57 -0.02,-0.9 v 0 0 Q 15.57,7.17 15.45,6.99 v 0 0 Q 15.33,6.82 15.1,6.75 v 0 0 Q 14.87,6.69 14.46,6.65 v 0 -0.49 H 17 v 4.3 0 q 0,0.8 0.02,1.3 v 0 0 q 0.02,0.5 0.06,0.76 v 0 0 q 0.03,0.18 0.09,0.28 v 0 0 q 0.06,0.11 0.19,0.17 v 0 0 q 0.13,0.06 0.33,0.08 v 0 0 q 0.2,0.03 0.52,0.03 v 0 0.49 l -2.31,0.16 -0.15,-1.68 h -0.06 v 0 q -0.53,0.87 -1.22,1.27 v 0 0 q -0.69,0.4 -1.45,0.4 v 0 0 q -0.59,0 -1.14,-0.22 v 0 0 q -0.55,-0.23 -0.83,-0.61 v 0 0 q -0.24,-0.3 -0.35,-0.85 v 0 0 q -0.1,-0.55 -0.1,-1.41 v 0 -2.23 0 q 0,-0.57 -0.03,-0.9 v 0 0 Q 10.54,7.17 10.42,6.99 v 0 0 Q 10.3,6.82 10.07,6.75 v 0 0 Q 9.84,6.69 9.44,6.65 v 0 -0.49 h 2.53 v 3.82 0 q 0,1.53 0.36,2.21 v 0 0 q 0.35,0.69 1.14,0.69 v 0 0 q 1.23,0 1.92,-1.61 v 0 0 q 0.07,-0.17 0.11,-0.31 v 0 0 q 0.04,-0.14 0.07,-0.31 v 0 0 q 0.03,-0.16 0.04,-0.37 v 0 0 q 0.01,-0.21 0.01,-0.51 z m 6.09,-3.75 v 5.33 0 q 0,0.55 0.05,0.88 v 0 0 q 0.05,0.33 0.19,0.52 v 0 0 q 0.14,0.19 0.39,0.26 v 0 0 q 0.26,0.07 0.68,0.08 v 0 0.49 H 19 v -0.49 0 Q 19.42,13.08 19.68,13 v 0 0 q 0.27,-0.08 0.42,-0.25 v 0 0 q 0.14,-0.18 0.19,-0.49 v 0 0 q 0.05,-0.32 0.05,-0.81 v 0 -1.79 0 q 0,-0.81 -0.02,-1.34 v 0 0 Q 20.3,7.8 20.24,7.6 v 0 0 Q 20.17,7.28 19.92,7.16 v 0 0 Q 19.67,7.04 18.97,7.04 v 0 -0.49 z M 20.1,3.18 v 0 0 q 0,-0.37 0.26,-0.62 v 0 0 q 0.25,-0.25 0.61,-0.25 v 0 0 q 0.37,0 0.62,0.25 v 0 0 q 0.25,0.25 0.25,0.62 v 0 0 q 0,0.36 -0.25,0.61 v 0 0 q -0.25,0.26 -0.62,0.26 v 0 0 q -0.36,0 -0.61,-0.26 v 0 0 Q 20.1,3.54 20.1,3.18 Z m 10.41,8.23 -0.24,2.17 h -6.72 v -0.06 l 4.84,-6.77 h -1.55 v 0 q -0.6,0 -0.99,0.05 v 0 0 q -0.38,0.05 -0.63,0.19 v 0 0 Q 24.98,7.14 24.85,7.4 v 0 0 q -0.13,0.26 -0.2,0.69 v 0 h -0.44 l 0.22,-1.93 h 6.02 v 0.06 l -4.77,6.72 h 1.63 v 0 q 0.72,0 1.19,-0.06 v 0 0 q 0.47,-0.06 0.77,-0.22 v 0 0 q 0.3,-0.17 0.47,-0.47 v 0 0 q 0.18,-0.29 0.3,-0.78 v 0 z m 5.47,-0.87 v -1.1 0 q -0.8,0.3 -1.35,0.6 v 0 0 q -0.55,0.29 -0.89,0.59 v 0 0 q -0.34,0.29 -0.48,0.58 v 0 0 q -0.15,0.3 -0.15,0.61 v 0 0 q 0,0.46 0.31,0.75 v 0 0 q 0.31,0.3 0.81,0.3 v 0 0 q 0.36,0 0.68,-0.19 v 0 0 q 0.31,-0.18 0.55,-0.49 v 0 0 q 0.24,-0.32 0.38,-0.74 v 0 0 q 0.14,-0.43 0.14,-0.91 z M 33.96,9.72 35.98,8.83 v -0.57 0 q 0,-1.71 -1.46,-1.71 v 0 0 q -0.23,0 -0.4,0.04 v 0 0 q -0.17,0.05 -0.28,0.14 v 0 0 q -0.11,0.1 -0.21,0.28 v 0 0 Q 33.54,7.2 33.46,7.46 v 0 0 Q 33.31,7.87 33.16,8 v 0 0 q -0.15,0.13 -0.43,0.13 v 0 0 q -0.7,0 -0.7,-0.7 v 0 0 q 0,-0.67 0.72,-1.04 v 0 0 q 0.71,-0.37 2.03,-0.37 v 0 0 q 1.4,0 1.98,0.5 v 0 0 q 0.59,0.49 0.59,1.68 v 0 3.14 0 q 0,1.6 0.63,1.6 v 0 0 q 0.2,0 0.38,-0.05 v 0 0 q 0.18,-0.05 0.31,-0.26 v 0 l 0.19,0.33 v 0 q -0.16,0.33 -0.61,0.54 v 0 0 q -0.45,0.22 -0.94,0.22 v 0 0 q -0.62,0 -0.92,-0.39 v 0 0 q -0.3,-0.39 -0.3,-1.11 v 0 h -0.07 v 0 q -0.36,0.69 -1.01,1.09 v 0 0 q -0.64,0.4 -1.42,0.4 v 0 0 q -0.89,0 -1.39,-0.45 v 0 0 q -0.5,-0.45 -0.5,-1.21 v 0 0 q 0,-0.33 0.12,-0.64 v 0 0 q 0.11,-0.31 0.38,-0.59 v 0 0 q 0.27,-0.28 0.7,-0.55 v 0 0 Q 33.33,10 33.96,9.72 Z m 7.82,-7.76 v 9.44 0 q 0,0.53 0.04,0.85 v 0 0 q 0.04,0.32 0.17,0.5 v 0 0 q 0.14,0.19 0.38,0.26 v 0 0 q 0.25,0.07 0.65,0.08 v 0 0.49 h -3.86 v -0.49 0 Q 39.58,13.08 39.83,13 v 0 0 q 0.25,-0.08 0.4,-0.25 v 0 0 q 0.15,-0.16 0.2,-0.46 v 0 0 q 0.04,-0.31 0.04,-0.8 v 0 -6.03 0 q 0,-0.76 -0.02,-1.27 v 0 0 Q 40.43,3.68 40.39,3.5 v 0 0 Q 40.32,3.18 40.06,3.07 v 0 0 Q 39.8,2.95 39.13,2.95 v 0 -0.47 z m 4.81,4.06 v 5.33 0 q 0,0.55 0.05,0.88 v 0 0 q 0.05,0.33 0.19,0.52 v 0 0 q 0.14,0.19 0.39,0.26 v 0 0 q 0.25,0.07 0.67,0.08 v 0 0.49 h -4.01 v -0.49 0 Q 44.3,13.08 44.56,13 v 0 0 q 0.27,-0.08 0.42,-0.25 v 0 0 q 0.14,-0.18 0.19,-0.49 v 0 0 q 0.05,-0.32 0.05,-0.81 v 0 -1.79 0 q 0,-0.81 -0.02,-1.34 v 0 0 Q 45.18,7.8 45.12,7.6 v 0 0 Q 45.05,7.28 44.8,7.16 v 0 0 Q 44.55,7.04 43.85,7.04 v 0 -0.49 z M 44.98,3.18 v 0 0 q 0,-0.37 0.25,-0.62 v 0 0 q 0.26,-0.25 0.62,-0.25 v 0 0 q 0.36,0 0.62,0.25 v 0 0 q 0.25,0.25 0.25,0.62 v 0 0 q 0,0.36 -0.25,0.61 v 0 0 q -0.26,0.26 -0.62,0.26 v 0 0 q -0.36,0 -0.62,-0.26 v 0 0 Q 44.98,3.54 44.98,3.18 Z m 9.86,8.83 0.42,0.41 v 0 q -0.51,0.61 -1.3,0.96 v 0 0 q -0.8,0.34 -1.73,0.34 v 0 0 q -0.74,0 -1.36,-0.27 v 0 0 Q 50.25,13.17 49.8,12.68 v 0 0 q -0.45,-0.5 -0.7,-1.2 v 0 0 q -0.24,-0.7 -0.24,-1.55 v 0 0 q 0,-0.9 0.28,-1.62 v 0 0 q 0.28,-0.72 0.79,-1.23 v 0 0 q 0.51,-0.51 1.23,-0.79 v 0 0 q 0.72,-0.27 1.59,-0.27 v 0 0 q 0.55,0 1,0.09 v 0 0 q 0.44,0.09 0.77,0.25 v 0 0 q 0.33,0.16 0.51,0.39 v 0 0 q 0.19,0.24 0.19,0.5 v 0 0 q 0,0.28 -0.19,0.44 v 0 0 q -0.18,0.15 -0.5,0.15 v 0 0 q -0.25,0 -0.42,-0.1 v 0 0 Q 53.94,7.63 53.68,7.27 v 0 0 Q 53.4,6.94 53.14,6.81 v 0 0 Q 52.88,6.68 52.47,6.68 v 0 0 q -0.99,0 -1.5,0.77 v 0 0 q -0.51,0.77 -0.51,2.27 v 0 0 q 0,1.61 0.56,2.44 v 0 0 q 0.57,0.83 1.66,0.83 v 0 0 q 0.59,0 1.11,-0.23 v 0 0 q 0.52,-0.23 1.05,-0.75 z m 4.03,-5.99 v 5.33 0 q 0,0.55 0.05,0.88 v 0 0 q 0.05,0.33 0.19,0.52 v 0 0 q 0.14,0.19 0.39,0.26 v 0 0 q 0.25,0.07 0.67,0.08 v 0 0.49 h -4.02 v -0.49 0 Q 56.57,13.08 56.84,13 v 0 0 q 0.27,-0.08 0.41,-0.25 v 0 0 q 0.15,-0.18 0.2,-0.49 v 0 0 q 0.05,-0.32 0.05,-0.81 v 0 -1.79 0 q 0,-0.81 -0.02,-1.34 v 0 0 Q 57.46,7.8 57.4,7.6 v 0 0 Q 57.33,7.28 57.08,7.16 v 0 0 Q 56.83,7.04 56.13,7.04 v 0 -0.49 z M 57.26,3.18 v 0 0 q 0,-0.37 0.25,-0.62 v 0 0 q 0.25,-0.25 0.62,-0.25 v 0 0 q 0.36,0 0.61,0.25 v 0 0 Q 59,2.81 59,3.18 v 0 0 q 0,0.36 -0.26,0.61 v 0 0 q -0.25,0.26 -0.61,0.26 v 0 0 q -0.37,0 -0.62,-0.26 v 0 0 Q 57.26,3.54 57.26,3.18 Z M 65,6.02 v 0 0 q 0.8,0 1.51,0.29 v 0 0 q 0.72,0.28 1.26,0.79 v 0 0 q 0.54,0.5 0.85,1.19 v 0 0 q 0.32,0.7 0.32,1.52 v 0 0 q 0,0.86 -0.32,1.57 v 0 0 q -0.31,0.72 -0.85,1.23 v 0 0 q -0.54,0.52 -1.26,0.82 v 0 0 Q 65.8,13.72 65,13.72 v 0 0 q -0.78,0 -1.49,-0.29 v 0 0 q -0.71,-0.28 -1.24,-0.8 v 0 0 q -0.53,-0.52 -0.84,-1.24 v 0 0 Q 61.12,10.67 61.12,9.81 v 0 0 q 0,-0.82 0.31,-1.52 v 0 0 q 0.31,-0.7 0.84,-1.21 v 0 0 Q 62.8,6.58 63.51,6.3 v 0 0 Q 64.22,6.02 65,6.02 Z m 0,0.67 v 0 0 q -0.52,0 -0.94,0.23 v 0 0 q -0.43,0.22 -0.73,0.63 v 0 0 q -0.3,0.42 -0.46,1 v 0 0 q -0.16,0.58 -0.16,1.28 v 0 0 q 0,0.73 0.16,1.31 v 0 0 q 0.16,0.59 0.46,1 v 0 0 q 0.3,0.42 0.72,0.64 v 0 0 q 0.42,0.23 0.95,0.23 v 0 0 q 0.53,0 0.97,-0.23 v 0 0 q 0.43,-0.22 0.74,-0.64 v 0 0 q 0.31,-0.42 0.48,-1.01 v 0 0 q 0.16,-0.59 0.16,-1.3 v 0 0 q 0,-0.7 -0.16,-1.28 v 0 0 Q 67.02,7.98 66.71,7.57 v 0 0 Q 66.4,7.15 65.97,6.92 v 0 0 Q 65.53,6.69 65,6.69 Z m 11.09,3.08 v -1.37 0 q 0,-0.57 -0.03,-0.9 v 0 0 Q 76.03,7.17 75.92,6.99 v 0 0 Q 75.8,6.82 75.56,6.75 v 0 0 Q 75.33,6.69 74.93,6.65 v 0 -0.49 h 2.53 v 4.3 0 q 0,0.8 0.02,1.3 v 0 0 q 0.02,0.5 0.07,0.76 v 0 0 q 0.02,0.18 0.09,0.28 v 0 0 q 0.06,0.11 0.19,0.17 v 0 0 q 0.12,0.06 0.33,0.08 v 0 0 q 0.2,0.03 0.52,0.03 v 0 0.49 l -2.31,0.16 -0.15,-1.68 h -0.06 v 0 q -0.53,0.87 -1.22,1.27 v 0 0 q -0.7,0.4 -1.45,0.4 v 0 0 q -0.59,0 -1.15,-0.22 v 0 0 q -0.55,-0.23 -0.83,-0.61 v 0 0 q -0.24,-0.3 -0.34,-0.85 v 0 0 q -0.11,-0.55 -0.11,-1.41 v 0 -2.23 0 q 0,-0.57 -0.02,-0.9 v 0 0 Q 71.01,7.17 70.89,6.99 v 0 0 Q 70.77,6.82 70.54,6.75 v 0 0 Q 70.31,6.69 69.9,6.65 v 0 -0.49 h 2.54 v 3.82 0 q 0,1.53 0.35,2.21 v 0 0 q 0.36,0.69 1.14,0.69 v 0 0 q 1.24,0 1.92,-1.61 v 0 0 q 0.07,-0.17 0.11,-0.31 v 0 0 q 0.05,-0.14 0.07,-0.31 v 0 0 q 0.03,-0.16 0.05,-0.37 v 0 0 q 0.01,-0.21 0.01,-0.51 z m 4.38,3.32 -0.28,0.49 h -0.31 v -2.41 h 0.35 v 0 q 0.55,1.98 1.99,1.98 v 0 0 q 0.56,0 0.89,-0.28 v 0 0 q 0.33,-0.27 0.33,-0.83 v 0 0 q 0,-0.21 -0.06,-0.36 v 0 0 q -0.07,-0.14 -0.24,-0.3 v 0 0 Q 82.96,11.21 82.65,11 v 0 0 q -0.32,-0.21 -0.83,-0.53 v 0 0 Q 81.34,10.18 80.99,9.93 v 0 0 Q 80.64,9.67 80.4,9.41 v 0 0 Q 80.16,9.16 80.05,8.86 v 0 0 Q 79.93,8.57 79.93,8.18 v 0 0 q 0,-0.48 0.16,-0.88 v 0 0 q 0.16,-0.4 0.44,-0.68 v 0 0 q 0.28,-0.28 0.66,-0.44 v 0 0 q 0.37,-0.16 0.82,-0.16 v 0 0 q 0.38,0 0.79,0.12 v 0 0 q 0.4,0.12 0.71,0.31 v 0 l 0.28,-0.29 h 0.27 v 2.02 h -0.37 v 0 Q 83.38,7.32 83.02,6.96 v 0 0 Q 82.66,6.59 82.12,6.59 v 0 0 q -0.47,0 -0.76,0.26 v 0 0 q -0.29,0.25 -0.29,0.7 v 0 0 q 0,0.23 0.08,0.41 v 0 0 q 0.08,0.17 0.25,0.34 v 0 0 q 0.16,0.17 0.42,0.34 v 0 0 q 0.26,0.18 0.63,0.4 v 0 0 q 0.6,0.38 1.02,0.68 v 0 0 q 0.43,0.29 0.7,0.58 v 0 0 q 0.26,0.28 0.39,0.59 v 0 0 q 0.13,0.31 0.13,0.7 v 0 0 q 0,1 -0.65,1.56 v 0 0 q -0.64,0.57 -1.69,0.57 v 0 0 q -1.09,0 -1.88,-0.63 z"
       id="path13"
       inkscape:connector-curvature="0"
       style="fill:url(#linearGradient4543)" />
  </g>
  <defs
     data-v-fde0c5aa=""
     id="defs21">
    <linearGradient
       data-v-fde0c5aa=""
       gradientTransform="rotate(25)"
       id="4850d6f6-aeb9-4b2e-9f3d-d827982fd8cc"
       x1="0"
       y1="0"
       x2="1"
       y2="0">
      <stop
         data-v-fde0c5aa=""
         offset="0%"
         stop-color="#1DDBFC"
         stop-opacity="1"
         id="stop16" />
      <stop
         data-v-fde0c5aa=""
         offset="100%"
         stop-color="#FF0FF8"
         stop-opacity="1"
         id="stop18" />
    </linearGradient>
  </defs>
  <!---->
</svg>
